<!-- Uploaded to: SVG Repo, www.svgrepo.com, Transformed by: SVG Repo Mixer Tools -->
<svg fill="white" height="172px" width="172px" version="1.1" id="Layer_1" xmlns="http://www.w3.org/2000/svg" xmlns:xlink="http://www.w3.org/1999/xlink" viewBox="-51.2 -51.2 614.40 614.40" xml:space="preserve" transform="rotate(0)matrix(-1, 0, 0, 1, 0, 0)" stroke="white">

<g id="SVGRepo_bgCarrier" stroke-width="0"/>

<g id="SVGRepo_tracerCarrier" stroke-linecap="round" stroke-linejoin="round" stroke="#0a0a0a" stroke-width="50.176"> <g> <g> <g> <path d="M281.021,122.435H97.414C43.698,122.435,0,166.133,0,219.848v92.538c0,61.351,30.742,99.439,80.206,99.439h8.838v66.783 c0,10.485,7.302,19.523,17.542,21.749c1.558,0.356,3.161,0.512,4.719,0.512c8.593,0,16.584-4.964,20.257-13.023 c18.744-41.16,65.313-68.474,79.449-76.021h56.12c51.467,0,111.304-43.431,111.304-99.439v-92.538 C378.435,166.133,334.737,122.435,281.021,122.435z"/> <path d="M414.586,11.13H230.979c-42.964,0-79.071,28.115-92.004,66.783h142.047c78.269,0,141.935,63.666,141.935,141.935v80.673 h8.815c49.486,0,80.228-38.088,80.228-99.439v-92.538C512,54.828,468.302,11.13,414.586,11.13z"/> </g> </g> </g> </g>

<g id="SVGRepo_iconCarrier"> <g> <g> <g> <path d="M281.021,122.435H97.414C43.698,122.435,0,166.133,0,219.848v92.538c0,61.351,30.742,99.439,80.206,99.439h8.838v66.783 c0,10.485,7.302,19.523,17.542,21.749c1.558,0.356,3.161,0.512,4.719,0.512c8.593,0,16.584-4.964,20.257-13.023 c18.744-41.16,65.313-68.474,79.449-76.021h56.12c51.467,0,111.304-43.431,111.304-99.439v-92.538 C378.435,166.133,334.737,122.435,281.021,122.435z"/> <path d="M414.586,11.13H230.979c-42.964,0-79.071,28.115-92.004,66.783h142.047c78.269,0,141.935,63.666,141.935,141.935v80.673 h8.815c49.486,0,80.228-38.088,80.228-99.439v-92.538C512,54.828,468.302,11.13,414.586,11.13z"/> </g> </g> </g> </g>

</svg>